<?xml version="1.0" encoding="UTF-8"?>
<svg id="Layer_1" xmlns="http://www.w3.org/2000/svg" viewBox="0 0 1080 675">
  <defs>
    <style>
      .cls-1 {
        fill: #dd4827;
      }

      .cls-2 {
        fill: #f8fafa;
      }

      .cls-3 {
        fill: #0c436a;
      }

      .cls-4 {
        fill: #fdfdfd;
      }
    </style>
  </defs>
  <path class="cls-2" d="M218.57,506.56c-6.74.71-13.44,2.01-20.57,1.56,3.54-10.25,7.14-20.18,10.41-30.21,4.07-12.47,6.94-25.25,9.35-38.14.4-2.12.07-3.78-1.65-5.34-10.86-9.88-19.08-21.7-25.14-35.03-1.56-3.44-4.51-4.97-7.87-5.36-12.83-1.5-24.69-5.14-34.47-14.08-.89-.81-2.41-.99-3.67-1.31-22.1-5.58-35.22-23.25-34.31-46.24.11-2.65.25-5.31.4-8.23-2.77.35-4.26,2.22-6.08,3.53-.89.64-1.62,1.99-2.93,1.4-1.27-.57-.92-2-1.07-3.11-1.65-11.97-.69-23.83,1.67-35.84-9.14-.19-17.55-2.5-25.73-5.97-3.06-1.3-4.12-2.27-1.82-5.55,9.57-13.6,13.83-28.89,13.91-45.48.06-12.17,1.24-24.25,3.78-36.16.82-3.82.14-6.02-3.57-8.24-30.3-18.09-48.78-45.43-60.16-78.15-4.15-11.92-7.37-24.12-9.62-36.51C16.5,58.06,9.3,44.09,0,31v-11c1.27-.45,1.47-1.69,2.01-2.69,2.96-5.46,7.43-8.76,13.62-9.83,6.49-1.12,11.65,1.97,16.71,5.15,13.15,8.27,22.53,20.14,30.67,33.03,7.9,12.51,15.29,25.33,23.14,37.88,5.79,9.25,12.92,17.33,22.16,23.4,2.08,1.37,3.6,1.6,5.74.14,13.49-9.19,28.66-14.58,44.16-19.18,2.06-.61,4.49-.5,6.23-2.29-3.58-3.68-8.21-5.37-11.77-8.29.4-1.43,1.36-1.25,2.12-1.44,33.76-8.27,67.87-11.7,102.34-5.73,27.23,4.72,52.45,14.53,73.75,32.84,1.62,1.39,3.31,1.93,5.4,2.08,22.86,1.61,41.41-7.7,57.64-22.75,13.94-12.93,26.32-27.38,39.39-41.15,17-17.93,35.31-33.96,60.22-40.04.55-.13.98-.74,1.47-1.13,5,0,10,0,15,0,.49,1.94,2.48,2.06,3.76,3,10.24,7.56,10.77,22.74.46,29.92-13.94,9.71-22.85,22.99-29.06,38.4-5.21,12.92-10.41,25.86-16.78,38.26-1.96,3.82-.8,4.27,2.84,4.24,16.5-.14,32.99,0,49.49-.12,2.88-.02,4.41.91,5.75,3.45,5.66,10.72,11.62,21.29,17.33,31.98,1.26,2.36,2.6,3.75,5.51,4.18,23.59,3.45,47.23,5.44,71.11,4.07,15.62-.9,31.17-2.18,46.66-4.38,3.85-.55,6.56-1.69,8.5-5.55,5.14-10.24,10.94-20.14,16.25-30.29,1.35-2.59,2.92-3.46,5.79-3.45,45.16.09,90.31.08,135.47,0,2.66,0,4.26.74,5.55,3.12,2.53,4.67,5.59,9.06,8.06,13.76,1.46,2.78,3.24,3.79,6.29,3.33,12.83-1.95,25.73-3.21,38.65-4.37,6.99-.63,13.97-.54,20.96-.69,1.92-.04,3.54.55,5.11,1.59,21.55,14.3,42.12,29.82,60.09,48.54,18.47,19.25,21.95,42.09,15.82,67.12-2.86,11.68-7.12,22.89-13.88,32.87-2.86,4.22-3.18,8.74-3.41,13.24-2.16,42.99,2.33,84.99,19.68,124.91,8.84,20.34,20.5,38.8,37.28,53.61,3,2.64,2.08,3.66-.89,4.98-5.62,2.5-11.36,4.78-17.35,6.05-3.6.77-3.78,1.53-1.48,4.18,15.58,17.93,32.85,34,52.28,47.7,4.62,3.26,9.43,6.24,14.15,9.34v2c-.59.27-1.36.38-1.74.82-5.6,6.47-12.03,11.99-19.39,16.34-2.38,1.41-1.81,3.31-1.56,5.2,1.7,12.83,5.37,25,12.66,35.82,1.62,2.4,1.16,3.98-.27,6.21-3.59,5.59-7.14,11.24-10.18,17.14-7.93,15.39-14.45,31.32-17.53,48.48h-118c1.07-6.11,3.85-11.62,6.29-17.22,5.57-12.8,12.33-24.96,21.18-36.76-8.66-.58-13.36-4.04-11.69-12.85.16-.84-.3-2.27-.94-2.67-1.29-.8-2,.7-2.75,1.45-4.97,4.96-10.56,9.11-16.23,13.23-4.04,2.94-5.08,1.47-5.88-2.55-1.29-6.52-3.36-12.82-5.96-18.95-1.05-2.48-2.23-4.16-4.11-.64-.97,1.82-1.9,2.19-3.91,1.23-8.23-3.94-15.6-8.86-20.84-16.55-3.29-4.83-3.35-4.81-6.26,0-11.27,18.63-22.61,37.21-33.71,55.93-2.02,3.4-4.16,4.73-8.2,4.71-36.15-.17-72.3-.05-108.45-.18-3.29-.01-5.14.83-6.46,3.92-1.95,4.57-4.52,8.88-6.55,13.42-1.05,2.37-2.53,3.08-5,3.07-35.65-.06-71.3-.1-106.95.04-4.22.02-4.29-1.92-3.47-4.87,2.26-8.15,4.33-16.36,6.94-24.4,3.89-12,7.91-23.97,18.72-32.08,2.29-1.72,3.64-4.7,5.35-7.15.62-.89,1.47-1.91-.02-3.2-8.98,5.88-18.47,10.92-28.49,14.99-3.37,1.37-5.08,1.48-4.78-3.11.23-3.48.85-7.21-1.2-11.1-6.18,7.81-11.29,15.94-18.34,23.07-2.17-4.41-4.11-8.42-6.12-12.4-2.84-5.62-2.88-5.62-6.19-.58-7.42,11.3-15.54,22.04-25.26,31.48-1.85,1.8-3.6,5.18-6.05,4.46-1.95-.57-1.48-4.34-1.97-6.72-.21-1.02-.06-2.63-1.53-2.78-1.44-.15-1.58,1.46-2.21,2.36-5.68,8.2-9.32,17.25-10.36,27.15-.44,4.17-2.18,4.9-5.99,4.88-35.98-.15-71.97-.09-107.95-.09-.83,0-1.67-.03-2.5,0-2.08.06-3.07-.6-2.57-2.97.97-4.54,1.37-9.23,2.67-13.66.92-3.12.19-4.24-2.72-3.61-9.59,2.08-14.82-2.72-18.15-10.94-.68-1.67-1.98-3.09-2.74-4.74-1.68-3.65-3.09-4.01-6.19-.86-6.33,6.43-13.33,12.18-21.22,17.14-1.93-7.52-.87-15.01-3.74-21.78-1.71.42-2.12,1.61-2.83,2.48-10.26,12.55-21.86,23.75-34.08,34.37-3.03,2.63-4.73,2.66-6.2-1.51-1.48-4.21-3.65-8.17-5.5-12.26-.99-2.19-2.14-3.08-3.71-.5-6.23,10.19-13.5,19.73-19.19,30.26h-127c-.09-3.64,1.76-6.72,3.18-9.83,9.43-20.75,21.41-39.75,38.7-54.97,1.57-1.38,2.12-2.65,1.67-4.73-.67-3.07-.92-6.24-1.45-9.34-.53-3.09.1-5.74,1.84-8.45,12.41-19.44,24.61-39.03,37.08-58.43,2.06-3.21,1.96-5.15-1.15-7.29-3.38-2.33-6.56-4.97-9.91-7.53,2.22-2.43,4.32-4.74,6.42-7.05.14-.28.47-.66.39-.82-.34-.61-.79-.35-1.19,0ZM939.85,582.07c4.18,5.32,7.15,10.55,7.6,16.04.85,10.49,6.37,15.42,16.09,17.04,4.76.8,3.93,2.67,1.25,5.62-10.84,11.96-18.96,25.68-25.56,40.37-1.49,3.33-.85,4.14,2.76,4.12,29.33-.11,58.67-.11,88,0,2.92.01,3.99-.97,4.67-3.7,4.77-19.07,12.54-36.86,23.42-53.24,1.29-1.94,1.28-3.33.14-5.33-7.09-12.4-9.96-25.99-11.24-40.07-.37-4.04.69-6.38,4.54-7.97,3.69-1.53,6.66-4.36,9.82-6.82,2.79-2.18,3.05-3.42-.27-5.63-26.23-17.47-48.01-39.57-66.58-64.93-.92-1.26-2.44-2.31-2.2-4.58,8.54.38,17.12,1.11,25.62-2.51-.81-.98-1.27-1.65-1.84-2.21-20.22-19.73-32.8-43.87-40.56-70.72-10.96-37.88-11.85-76.52-8.4-115.47.17-1.92,1.01-3.46,2.07-4.99,7.21-10.4,11.85-21.93,14.89-34.16,5.58-22.38,1.51-42.2-15.12-58.95-15.93-16.04-33.71-29.73-52.25-42.55-3.06-2.12-6.15-2.86-9.8-2.72-19.84.75-39.52,3.16-59.15,5.92-2.93.41-4.55-.2-5.97-2.84-2.77-5.12-6.03-9.99-8.85-15.08-1.3-2.34-2.88-3.16-5.55-3.16-41.33.08-82.67.09-124-.02-3.02,0-4.39,1.22-5.69,3.66-5.3,10.01-10.92,19.85-16.11,29.92-1.58,3.07-3.65,4.36-6.87,4.72-10.26,1.17-20.5,2.55-30.76,3.71-33.84,3.84-67.51,2.57-101.05-3.24-2.82-.49-4.33-1.76-5.61-4.16-5.39-10.15-11.07-20.15-16.33-30.37-1.7-3.31-3.74-4.3-7.37-4.27-19.33.19-38.67.11-58,.06-1.75,0-3.61.55-5.37-.57.15-.52.19-1.02.42-1.41,9.52-15.93,16.86-32.89,23.63-50.1,7.27-18.49,17.02-35.02,33.89-46.5,3.35-2.28,4.39-5.81,2.9-9.74-1.48-3.9-4.46-5.7-8.58-5.48-1.65.09-3.31.4-4.94.73-12.31,2.52-23.21,8.07-33.2,15.56-12.2,9.15-22.47,20.33-32.78,31.45-11.78,12.71-23.15,25.85-36.53,36.94-17.32,14.36-37.02,22.2-59.89,20.5-3.1-.23-6.16-.35-8.79-2.78-11.16-10.31-24.19-17.65-38.26-23.16-29.2-11.44-59.47-14.01-90.41-10.52-6.65.75-13.36,1.38-20.27,3.44,3,3.37,6.53,5.5,8.21,9.53-2.47.55-4.57,1-6.66,1.47-18.74,4.22-37.12,9.43-54.06,18.85-2.74,1.52-3.49,2.48-.55,4.73,3.75,2.87,7.27,6.1,9.82,11.22-19.63-4.14-35.7-12.78-48.18-27.65-6.24-7.43-11.26-15.69-16.22-23.99-7.26-12.15-14.03-24.62-22.66-35.9-6.44-8.41-13.75-15.84-23.11-21.06-4.16-2.32-8.15-3.11-11.82.72-3.12,3.25-2.97,7.4.37,12.26,7.65,11.12,12.92,23.24,15.73,36.45,1.49,7,2.99,14.01,4.78,20.93,10.66,41.09,30.24,75.71,69.9,95.59,2.26,1.13,2.07,2.48,1.56,4.44-4,15.24-5.56,30.78-5.57,46.51,0,13.73-2.66,26.85-9.9,38.73-1.74,2.86-.74,3.61,1.99,4.23,7.71,1.75,15.22,1.01,22.68-1.3,1.29-.4,2.52-1.66,4.27-.58-4.67,10.7-8.39,21.6-7.81,34.05,4.31-1.93,7.85-4.2,11.91-5.05,1.17-.25,2.59-1.53,3.63-.18.73.95-.04,2.23-.43,3.32-2.46,6.93-4.35,13.99-4.82,21.37-1.43,22.53,12.53,36.99,28.83,38.68,1.6.17,3.28.43,4.56,1.76,8.08,8.36,18.29,11.61,29.56,12.92,7.63.89,13.72,4.57,17.05,12.14,3.23,7.33,7.27,14.25,12.43,20.44,1.82,2.18,3.4,4.7,6.31,6.36,2.39-8.47,4.09-16.56,8.58-25.26,4.46,35.37-3.47,67.42-14.67,99.46,9.29-1.3,17.86-4.42,27.29-5.1-1.69,5.3-4.03,9.5-6.7,13.51-1.74,2.61-5.24,5.21-5.07,7.61.17,2.37,3.85,4.61,6.18,6.68,3.28,2.91,3.45,5.48.94,9.34-10.9,16.75-21.05,34.01-32.24,50.56-6.16,9.1-10.42,17.94-6.65,29.04.88,2.59-.08,4.51-2.41,6.36-15.98,12.73-27.05,29.24-35.92,47.39-.37.76-.72,1.51-.19,2.46.57.07,1.22.21,1.87.21,33.5.01,67-.02,100.5.08,2.79,0,4.13-1.21,5.49-3.33,7.29-11.36,14.76-22.6,22.01-33.97,1.81-2.84,2.99-4.1,5.39-.46,3.21,4.88,6.48,9.72,8.87,15.05,1.22,2.71,2.3,3.2,4.5.93,4.87-5.02,10.01-9.78,14.82-14.86,8.37-8.83,15.72-18.49,22.66-29.26,3.79,7.46,5.69,14.8,7.37,22.23.27,1.21-.37,3.07,1.27,3.43,1.34.29,2.22-1.26,3.2-2.12,5.64-4.97,10.23-10.82,14.26-17.73,4.72,7.82,9.52,15.05,13.54,22.69,2.46,4.66,5.55,6.33,10.64,5.84,4.29-.42,8.66.01,12.99-.12,2.72-.08,3.52.45,2.37,3.34-1.72,4.31-2.84,8.87-4.35,13.27-.94,2.73-.03,3.52,2.7,3.52,30.5-.05,61-.06,91.5.02,2.48,0,3.47-.82,3.99-3.24,3.93-18.46,16.8-32.21,26.05-48.31,1.48,5.48,2.96,10.96,4.64,17.16,11.38-11.81,19.74-24.89,26.76-39.33,5.61,4.92,8.77,11.39,13.08,17.33,7.94-9.56,13.78-19.9,19.26-31.36,4.33,8.03,6.37,15.85,7.24,23.96.39,3.59,1.34,4.09,4.54,2.45,10.73-5.53,20.51-12.39,29.82-20.02,1.32-1.08,2.3-2.87,4.39-2.83,3.43,15.04-1.79,30.52-15.45,42.47-5.68,4.97-9.12,10.84-11.71,17.57-2.34,6.07-4.02,12.33-5.89,18.55-1.28,4.24-.86,5.72,4.15,5.67,24.33-.25,48.67-.06,73-.15,5.96-.02,13.09,2.23,17.55-.91,4.22-2.97,5.95-9.74,8.28-15.06,1.45-3.3,3.42-4.15,6.85-4.14,36,.12,72,0,108,.17,4.32.02,6.83-1.11,9.12-4.99,12.86-21.81,26.13-43.38,39.09-65.13,2-3.36,3.18-3.4,5.5-.41,3.39,4.37,6.11,9.14,8.99,13.81,2.2,3.56,4.66,6.89,8.35,9.13,2.52,1.53,3.42,1.07,3.49-1.98.11-4.94-.23-9.94.91-15,2.63,1.16,4.05,3.26,5.59,5.16,6.58,8.15,10.95,17.46,14.21,27.34,1.77,5.35,1.82,5.46,6.12,1.65,2.1-1.87,4.02-4,5.77-6.2,3.41-4.29,5.73-9.25,8.19-15Z"/>
  <path class="cls-3" d="M939.85,582.07c-2.47,5.75-4.78,10.71-8.19,15-1.75,2.21-3.67,4.34-5.77,6.2-4.29,3.81-4.35,3.7-6.12-1.65-3.26-9.87-7.63-19.19-14.21-27.34-1.54-1.9-2.96-4-5.59-5.16-1.14,5.07-.79,10.06-.91,15-.07,3.05-.97,3.51-3.49,1.98-3.69-2.24-6.15-5.57-8.35-9.13-2.89-4.68-5.6-9.45-8.99-13.81-2.32-2.98-3.5-2.94-5.5.41-12.96,21.75-26.22,43.32-39.09,65.13-2.29,3.88-4.8,5.01-9.12,4.99-36-.17-72-.05-108-.17-3.43-.01-5.4.84-6.85,4.14-2.33,5.31-4.06,12.08-8.28,15.06-4.46,3.14-11.59.89-17.55.91-24.33.09-48.67-.1-73,.15-5.01.05-5.44-1.43-4.15-5.67,1.88-6.21,3.56-12.48,5.89-18.55,2.6-6.73,6.04-12.6,11.71-17.57,13.66-11.95,18.88-27.43,15.45-42.47-2.09-.04-3.06,1.74-4.39,2.83-9.31,7.62-19.1,14.49-29.82,20.02-3.2,1.65-4.15,1.15-4.54-2.45-.88-8.1-2.91-15.93-7.24-23.96-5.48,11.46-11.32,21.81-19.26,31.36-4.31-5.95-7.47-12.42-13.08-17.33-7.02,14.45-15.38,27.52-26.76,39.33-1.68-6.2-3.16-11.68-4.64-17.16-9.26,16.1-22.12,29.86-26.05,48.31-.52,2.42-1.51,3.25-3.99,3.24-30.5-.07-61-.07-91.5-.02-2.73,0-3.64-.79-2.7-3.52,1.52-4.4,2.63-8.96,4.35-13.27,1.16-2.89.35-3.42-2.37-3.34-4.33.13-8.7-.3-12.99.12-5.09.49-8.18-1.18-10.64-5.84-4.03-7.64-8.82-14.87-13.54-22.69-4.04,6.9-8.62,12.75-14.26,17.73-.98.86-1.86,2.4-3.2,2.12-1.64-.35-.99-2.22-1.27-3.43-1.68-7.43-3.58-14.77-7.37-22.23-6.94,10.77-14.29,20.43-22.66,29.26-4.81,5.08-9.95,9.84-14.82,14.86-2.2,2.27-3.28,1.78-4.5-.93-2.4-5.33-5.66-10.17-8.87-15.05-2.4-3.64-3.57-2.39-5.39.46-7.26,11.38-14.73,22.62-22.01,33.97-1.36,2.12-2.69,3.34-5.49,3.33-33.5-.11-67-.07-100.5-.08-.65,0-1.31-.14-1.87-.21-.53-.95-.18-1.7.19-2.46,8.87-18.15,19.95-34.66,35.92-47.39,2.33-1.85,3.29-3.77,2.41-6.36-3.77-11.1.49-19.94,6.65-29.04,11.19-16.55,21.34-33.81,32.24-50.56,2.51-3.86,2.34-6.43-.94-9.34-2.34-2.07-6.02-4.31-6.18-6.68-.17-2.4,3.33-5,5.07-7.61,2.67-4.01,5.01-8.21,6.7-13.51-9.43.68-17.99,3.8-27.29,5.1,11.2-32.04,19.13-64.09,14.67-99.46-4.49,8.7-6.18,16.79-8.58,25.26-2.91-1.66-4.49-4.17-6.31-6.36-5.16-6.18-9.21-13.11-12.43-20.44-3.33-7.57-9.42-11.25-17.05-12.14-11.27-1.31-21.48-4.56-29.56-12.92-1.28-1.33-2.96-1.59-4.56-1.76-16.3-1.69-30.26-16.15-28.83-38.68.47-7.38,2.36-14.44,4.82-21.37.39-1.09,1.17-2.37.43-3.32-1.04-1.35-2.46-.06-3.63.18-4.06.85-7.6,3.13-11.91,5.05-.58-12.45,3.14-23.35,7.81-34.05-1.75-1.08-2.98.18-4.27.58-7.46,2.31-14.97,3.05-22.68,1.3-2.73-.62-3.73-1.37-1.99-4.23,7.23-11.87,9.9-25,9.9-38.73,0-15.74,1.57-31.27,5.57-46.51.51-1.96.71-3.31-1.56-4.44-39.66-19.87-59.24-54.5-69.9-95.59-1.8-6.93-3.29-13.93-4.78-20.93-2.81-13.21-8.08-25.33-15.73-36.45-3.34-4.86-3.49-9-.37-12.26,3.68-3.83,7.66-3.04,11.82-.72,9.36,5.22,16.67,12.65,23.11,21.06,8.63,11.28,15.4,23.75,22.66,35.9,4.96,8.3,9.98,16.56,16.22,23.99,12.48,14.87,28.55,23.51,48.18,27.65-2.54-5.12-6.07-8.35-9.82-11.22-2.94-2.25-2.18-3.21.55-4.73,16.94-9.42,35.32-14.63,54.06-18.85,2.09-.47,4.19-.93,6.66-1.47-1.68-4.02-5.21-6.16-8.21-9.53,6.91-2.06,13.62-2.69,20.27-3.44,30.94-3.48,61.21-.92,90.41,10.52,14.07,5.51,27.1,12.85,38.26,23.16,2.63,2.43,5.68,2.55,8.79,2.78,22.87,1.69,42.57-6.14,59.89-20.5,13.38-11.09,24.75-24.23,36.53-36.94,10.31-11.12,20.58-22.3,32.78-31.45,9.99-7.49,20.89-13.04,33.2-15.56,1.63-.33,3.28-.64,4.94-.73,4.12-.22,7.1,1.58,8.58,5.48,1.49,3.93.45,7.47-2.9,9.74-16.88,11.47-26.62,28.01-33.89,46.5-6.77,17.21-14.11,34.17-23.63,50.1-.23.39-.27.89-.42,1.41,1.76,1.11,3.63.56,5.37.57,19.33.05,38.67.13,58-.06,3.63-.04,5.67.96,7.37,4.27,5.26,10.22,10.94,20.21,16.33,30.37,1.27,2.4,2.79,3.67,5.61,4.16,33.54,5.81,67.22,7.07,101.05,3.24,10.26-1.16,20.5-2.54,30.76-3.71,3.22-.37,5.29-1.65,6.87-4.72,5.18-10.07,10.8-19.91,16.11-29.92,1.29-2.44,2.66-3.67,5.69-3.66,41.33.11,82.67.1,124,.02,2.68,0,4.25.82,5.55,3.16,2.83,5.1,6.08,9.96,8.85,15.08,1.43,2.64,3.04,3.25,5.97,2.84,19.64-2.76,39.31-5.17,59.15-5.92,3.65-.14,6.74.61,9.8,2.72,18.53,12.82,36.32,26.52,52.25,42.55,16.63,16.75,20.7,36.57,15.12,58.95-3.05,12.23-7.68,23.76-14.89,34.16-1.06,1.53-1.9,3.06-2.07,4.99-3.45,38.95-2.55,77.58,8.4,115.47,7.76,26.85,20.35,50.99,40.56,70.72.57.56,1.03,1.23,1.84,2.21-8.51,3.62-17.09,2.89-25.62,2.51-.24,2.28,1.28,3.33,2.2,4.58,18.56,25.36,40.34,47.46,66.58,64.93,3.32,2.21,3.06,3.45.27,5.63-3.16,2.46-6.13,5.29-9.82,6.82-3.85,1.59-4.9,3.92-4.54,7.97,1.27,14.08,4.14,27.67,11.24,40.07,1.14,2,1.15,3.38-.14,5.33-10.87,16.39-18.65,34.17-23.42,53.24-.68,2.73-1.75,3.71-4.67,3.7-29.33-.11-58.67-.12-88,0-3.62.01-4.26-.8-2.76-4.12,6.59-14.69,14.71-28.41,25.56-40.37,2.68-2.95,3.5-4.82-1.25-5.62-9.72-1.62-15.24-6.55-16.09-17.04-.44-5.49-3.41-10.73-7.6-16.04ZM116.99,254.97c12.41-10.25,17.8-24.33,21.43-40.07,4.66,6.71,5.37,14.2,7.82,21.84,6.62-8.43,11.64-16.83,16.7-25.21.92-1.53.36-2.4-.99-3.22-11.68-7.15-22.36-15.54-31.28-26.1-1.93,1.96-2.2,4.18-2.9,6.19-7.57,21.58-5.21,44.76-10.71,66.68-.19.07-.38.14-.57.21.09.02.24.09.27.05.1-.1.15-.24.22-.37ZM588.07,541.94c.09.12.17.23.26.35-.12-.09-.24-.18-.36-.27-.48-1.21-.83-2.5-1.46-3.63-18.17-32.54-36.37-65.06-54.59-97.57-.52-.93-.67-2.27-2.09-2.53-.9.59-.53,1.5-.53,2.24-.02,18.8-.08,37.61.03,56.41.03,5.66.74,11.29,2.5,16.73,1.85,5.69,5.35,10.06,10.99,13.92-.67-7.87-1.99-14.81-.76-22.05.77.48,1.13.57,1.27.81,9.92,16.29,25.24,26.15,41.51,34.88.99.53,1.96,1.36,3.23.71ZM946.81,391.2c.22.17.44.33.66.5.01-.39.02-.77.03-1.16-7.18-25.63-7.98-51.77-5.76-79.37-22.57,18.56-39.37,40.04-51.28,66.24-5.07-9.33-6-18.85-7.29-28.4-15.03,26.46-26.68,53.26-8.67,84.02-9.82-1.18-16.64-6.31-23.79-10.63-.35.77-.6,1.05-.6,1.34.02,25.66-.11,51.33.2,76.98.08,6.26.95,12.71,4.95,18.06,8.06,10.78,19.39,16.3,32.59,20.34-.94-7.68-1.8-14.7-2.81-23.02,21.3,12.94,35.74,31.04,50.27,50.91,2.86-24.49-3.87-45.66-14.13-67.15,4.8,1.94,7.3,4.4,9.79,6.82,8.92,8.67,14.34,19.55,19.13,30.78,5.18,12.13,11.13,23.85,18.28,34.93.84,1.3,1.27,3.08,3.56,3.76.3-9.32.17-18.47,1.39-28.55,16.05,17.94,21.7,38.88,24.68,62.16,5.67-8.96,7.49-17.61,8.36-26.61.25-2.55-.89-6.53,1.22-7.32,2.39-.89,4.79,2.33,6.93,4.1,5.09,4.2,9.39,9.19,13.75,15.54.8-3.84.55-6.43.27-9.02-1.33-12.15-5.89-23.18-11.64-33.8-1.49-2.76-4.54-5.86-4.05-8.21.59-2.79,5.31-2.54,8.1-3.94.55-.27,1.06-.62,1.95-1.15-27.48-22.29-46.44-50.87-64.4-81.08,5.81-.58,10.87,1.69,16.41-.26-24.32-24.51-44.16-51.24-51.46-85.47,7.62,6.55,14.65,13.64,23.35,18.66ZM813.13,407.06c-2.31-.48-2.79,1.67-3.74,2.84-8.66,10.67-14.01,23.01-17.39,36.2-2.93,11.45-5.25,23.06-8.11,34.53-5.83,23.34-17.53,42.72-38.41,55.7-.98.61-1.88,1.83-3.42,1.21,24.04-47.2,20.43-75.09,14.24-99.51-1.67,5.46-2.56,10.87-3.34,16.29-1.32,9.21-1.75,18.61-5.87,27.22-2.06,4.31-4.33,8.46-9.06,11.96,1.86-16.15,1.57-31.38.47-46.63-1.98-27.5,2.66-53.78,14.93-78.57,14.88-30.05,37.71-53.04,64.74-72.15,3.88-2.74,5.18-5.52,5.13-10.17-.13-12.48-.94-25.02.69-37.46,2.09-15.92,7.52-30.18,21.97-39.07,3.25-2,2.96-3.2,1.28-5.97-9.85-16.23-19.6-32.53-29.17-48.94-1.75-3-3.7-4-7.11-3.98-30,.13-60,.16-89.99-.02-3.9-.02-5.85,1.23-7.68,4.61-33.63,62.1-67.4,124.12-101.14,186.15-.84,1.55-1.76,3.06-2.72,4.73-2.08-1.6-2.69-3.75-3.7-5.6-33.61-61.73-67.21-123.46-100.69-185.26-1.82-3.36-3.73-4.68-7.66-4.64-21.5.22-43,.1-64.49.13-1.55,0-3.23-.45-5.36.95.78.41,1.21.61,1.6.85,13.48,8.34,18.02,20.71,16.18,35.94-2.45,20.29-16.51,34.24-27.33,51.2-1.83-6.08-3.33-11.07-5.01-16.63-3.25,4.76-5.48,9.46-8.98,12.87-8.01,7.81-9.23,16.82-9.15,27.68.52,76.82.28,153.66.27,230.48,0,5.16-.1,10.32-.87,15.45-2.45,16.29-8.2,30.61-23.47,39.15-2.59,1.45-1,2.65-.24,3.92,10.2,16.99,20.46,33.96,30.65,50.96,1.11,1.85,2.27,2.93,4.67,2.93,28.66-.08,57.33-.08,85.99,0,2.33,0,3.61-.88,4.75-2.8,10.1-17.05,20.24-34.09,30.48-51.05,1.41-2.33.97-3.25-1.29-4.52-8.01-4.47-13.36-11.38-17.16-19.59-4.64-10.04-6.16-20.71-6.17-31.63-.03-52.5-.02-104.99.02-157.49,0-1.38-.65-2.96.93-4.53,35.17,62.85,70.24,125.54,105.73,188.95,35.58-63.57,70.66-126.26,105.74-188.95,1.03,53.17,1.01,105.83,1.05,158.49,0,5.51-.15,11.01-.98,16.45-2.37,15.52-7.83,29.39-21.99,37.98-3.03,1.84-2.89,2.96-1.3,5.59,9.92,16.38,19.76,32.82,29.43,49.36,1.66,2.83,3.48,3.79,6.72,3.78,25.16-.14,50.35-.61,75.49.2,9.31.3,14.25-2.64,18.56-10.63,7.9-14.64,17.02-28.63,25.53-42.95.73-1.23,3.15-2.68.18-4.39-16.42-9.46-22.06-25.03-23.82-42.66-1.36-13.63-.29-27.31-.63-40.97-.04-1.48.59-3.17-.85-4.82-6.94,12.4-11.41,25.35-15.47,38.52-4.17-19.64-4.93-39.26-2.34-59.03,1.48-11.28,5.07-21.98,8.52-32.73.18-.19.36-.39.54-.58-.22,0-.44,0-.66,0l.27.65ZM347.34,472.26c1.36,1.4,1.31,2.78,1.47,4.07,1.78,13.71,3.46,27.43,5.35,41.12.37,2.68-.27,7.26,1.91,7.58,3.19.47,5.51-3.26,7.2-6.1,4.15-6.97,4.81-14.78,4.81-22.67,0-72.48,0-144.96-.02-217.43,0-1.55.51-3.22-.71-5.11-3.08,5.46-4.99,11.26-8.88,16.49-2.59-5.21-3.6-10.48-7.74-15.57-.88,26.92-10.74,51.68-7.51,78.01-9.82-9.23-17.79-19.53-23.57-33.11-.55,4.28-.92,6.89-1.22,9.5-2.44,21.39-17.16,37.86-22.91,59.29-5.85-12.8-7.17-25.17-9.39-37.46-8.9,16.5-8.76,34.33-7.23,53.55-9.06-8.83-15.29-18.02-20.46-28.07-.59,20.37-.54,40.54-3.93,60.5-.34,2.01.48,2.44,2.17,1.89,1.9-.63,3.78-1.31,5.64-2.04,6.61-2.58,12.84-5.94,19.73-10.37-2.38,12.76-6.36,23.69-10.88,34.61,18.48-9.34,35.58-20.37,52.04-32.45.4.47.79.94,1.19,1.41-36,57.13-72,114.26-108,171.39,19.52-2.6,33.93-13.2,47.3-28.27-1.52,20.17-5.97,37.75-16.47,53.51,2.42,1.2,4.05.02,5.65-.68,11.69-5.13,19.41-13.92,23.07-26.06,2.02-6.68,3.5-13.54,4.99-20.37,2.98-13.66,5.06-27.54,10.06-40.69,1.6-4.21,3.1-8.55,7.4-12.91-4.6,27.35-2.24,53.19,2.49,80.05,9.4-21.03,11.84-42.56,14.27-64.18,5.54,15.49,7.74,31.34,6.24,48.98,6.67-7.3,9.5-14.83,11.5-22.77,2.6-10.29,2.3-20.81,2.52-31.3.32-14.98.02-30.02,3.58-44.73,1.68-6.94,4.05-13.6,8.31-19.62ZM331.61,296.41c.76-8.29,1.47-16.58,2.3-24.87,2.56-25.45-5.33-47.27-22.68-65.85-.91-.97-2.32-1.76-2.03-4.2,22.76,8.67,38.84,23.84,49.43,46.45,2.24-10.45,2.59-19.83,2.16-29.26-.44-9.58-2.32-18.95-5.07-29.59,9.96,7.55,16.68,15.82,21.62,26.14,5.67-6.74,8.36-14.34,11.49-22.93,3.36,8.98,4.36,17.33,6.03,26.71,8.26-11.39,12.93-23.19,16.53-36.56,2.85,4.64,5.05,8.22,7.59,12.35,3.84-5.72,6.33-11.05,3.94-17.32-2.22-5.81-7.37-7.21-12.9-7.81-6.57-.71-12.97.32-19.28,1.95-17.3,4.47-34.68,7.93-52.72,7.78-13.4-.11-23.48-5.68-30.61-16.58-2.27-3.48-4.51-3.91-8.19-3.34-23.35,3.66-41.53,16.23-57.64,32.65-3.42,3.48-2.37,4.63,1.42,6.42,16.59,7.83,33.54,14.73,50.74,21.07,1.45.53,3.24.55,4.39,2.43-1.74-.09-3.24-.05-4.69-.25-18.33-2.54-36.48-5.96-54.22-11.31-10.83-3.27-10.66-3.14-17.39,5.94-2.65,3.57-1.45,4.59,2.01,5.69,9.68,3.09,19.3,6.34,28.92,9.57,1.31.44,3.03.17,3.98,2.13-13.56.28-26.78-.75-39.83-3.45-3.12-.64-4.85.02-6.59,2.66-3.48,5.28-7.4,10.27-11.05,15.44-2.23,3.16-5.4,5.63-7.45,9.91,15.14-2.49,28.69-7.64,42.68-13.79-.36,1.76-.42,2.57-.7,3.3-1.48,3.94-4.14,7.18-6.44,10.46,29.6,13.48,37.54,40.18,42.85,69.25,7.35-11.7,10.73-24.47,13.09-38.58,6.78,9.53,10.94,19.06,14.94,30.03,5.57-12.72,7.35-24.74,6.61-37.15-.74-12.34-5.01-24.02-7.5-36.13,17.41,12.95,26.73,31.06,34.25,50.64ZM830.55,352.51c16.33-24.51,39.79-38.33,62.96-52.49,8.39-5.13,16.9-10.05,25.32-15.13,5.56-3.36,11.12-6.73,16.2-10.82,11.38-9.15,20.7-19.87,25.06-34.12,4.32-14.11,2.29-26.91-8.16-38.01-13.54-14.39-28.88-26.64-44.6-38.49-1.94-1.46-4.02-1.41-6.18-1.28-13.14.84-26.2,2.48-39.25,4.19-4.71.62-4.37,2.25-2.32,5.62,8.16,13.37,16.12,26.86,24.14,40.32,3.34,5.6,3.29,5.52-2.57,7.86-16.31,6.53-28.37,16.92-30.69,35.44-.7,5.59-.18,11.32-.45,16.97-.17,3.75,1.21,3.78,4.04,2.33,19.29-9.86,38.55-19.74,56.95-31.23,9.11-5.69,15.93-12.62,16.09-24.14.03-2.38,1.19-2.4,2.86-1.43,3.81,2.23,6.2,5.53,7.08,9.83,2,9.82-1.62,17.59-8.85,24.06-10.15,9.07-21.9,15.72-33.66,22.35-16.83,9.49-34.21,18.03-50.39,28.66-23.28,15.28-42.32,34.46-54.33,59.97-1.14,2.42-2.74,4.78-2.54,8.68,13.62-15.26,27.52-28.91,45.11-40.03-1.18,7.2-2.25,13.24-1.81,20.9ZM552.28,185.96c19.11,35.13,37.72,69.36,56.87,104.58,19.42-35.72,38.22-70.28,57.57-105.87-38.46,5.8-75.88,6.91-114.44,1.29ZM250.36,327.09c-.96-14.55-6.58-27.39-14.64-39.27-7.65-11.28-19.44-15.37-32.34-10.9-17.77,6.16-35.53,8.26-53.79,2.11-4.49-1.51-6.66,1.94-7.92,5.63-1.8,5.27-.78,8.12,3.16,9.66,3.58,1.4,7.06,2.97,9.85,5.74,3.39,3.37,4.7,7.24,2.54,11.76-2.03,4.24-7.38,7.67-11.51,5.89-6.6-2.84-6.8,1.27-7.75,5.51-.95,4.27-1.4,8.55-.99,12.89.53,5.59,2.87,10.19,7.66,13.37,2.22,1.47,3.6,2.22,4.88-1.43,4.98-14.14,16.56-20.83,31.33-18.42,16.02,2.61,30.49,9.43,44.4,17.34,6.26,3.56,11.43,2.41,16.62-1.24,6.39-4.5,8.97-10.91,8.5-18.64ZM176.96,129.47c-2.46,1.26-4.16,2.36-6.02,3.04-4.52,1.66-4.48,4.25-2.42,8.07,4.76,8.79,11.45,15.88,18.57,22.72,3.29,3.17,5.09,2.97,8.04-.66,18.94-23.26,42.59-39.55,71.79-47.28,5.09-1.35,10.28-2.35,15.68-3.58-11.65-7.83-50.48-14.77-59.84-10.74,5.43,3.92,10.83,7.76,15.18,13.76-27.02-3.39-53.13-3.73-79.34,6.6,6.69,2.7,12.74,4.13,18.36,8.07ZM668.42,510.08c.51,6.37-.82,12.37-2.18,18.37-.24,1.07-.96,2.49.28,3.15.65.35,1.9-.23,2.81-.58,1.24-.48,2.43-1.08,3.61-1.71,12.3-6.59,15.76-17.89,15.92-30.69.2-15.49.05-30.99.05-46.49,0-4.57,0-9.14,0-13.71-.36-.09-.71-.17-1.07-.26-22.57,40.35-45.15,80.71-67.72,121.06,18.98-13.74,34.92-30.09,48.3-49.15ZM439.63,82.06c-1.78.33-2.59,1.91-3.71,3.03-5.88,5.89-11.54,12-17.61,17.68-26.72,24.94-57.57,37.82-94.7,31.7-2.28-.38-2.91.08-2.92,2.35-.05,9.22,8.97,19.93,17.27,18.2,3.21-.67,6.65-.16,9.95-.55,43.69-5.15,74.05-28.13,91.39-68.48.53-1.24,1.15-2.42.34-3.94ZM298.11,127.96c-34.02,2.72-61.56,17.3-83.76,42.39-7.28,8.22-7.18,7.99,2.08,13.97,3.75,2.42,5.66,1.8,8.54-1.38,17.85-19.72,38.87-34.37,65.53-39.59,3.1-.61,6.8-.27,9.17-1.91,2.63-1.82.53-5.98,1.68-8.91,1.45-3.72.46-5.39-3.24-4.57ZM650.35,609.69c7.69.28,13.72-1.38,19.39-4.23,2.97-1.5,4.05-.82,4.64,2.31.98,5.13,1.03,10.23.6,15.4-.1,1.2-1.32,2.74.19,3.62,1.26.74,2.54-.4,3.71-.93,5.36-2.42,10.06-5.78,14.32-9.85,2.09-2,2.65-3.59.95-6.36-8.26-13.47-16.26-27.1-24.39-40.65-.52-.87-.71-2.37-2.5-2.03-1.44,15.43-4.79,30.19-16.91,42.71ZM60.6,99.43c-.28,1.18-.6,1.71-.47,2.1,9.09,27.4,27.3,46.67,52.89,59.41,1.96.97,2.85.6,3.89-1.22,2.24-3.89,4.57-7.76,7.18-11.4,1.91-2.66.71-3.15-1.7-3.8-23.65-6.31-42.03-20.27-56.89-39.32-1.45-1.86-3.06-3.61-4.91-5.77ZM180.08,182.59c-.31-1.46-1.6-2.06-2.6-2.9-7.33-6.1-13.69-13.04-19.24-20.83-2.45-3.44-3.12-10.32-7.22-9.78-3.76.5-6.05,6.54-8.95,10.18-1.97,2.48-1.87,4.5-.22,7.13,7.13,11.35,16.79,20.12,27.6,27.79.78.56,1.53,1.33,2.67.96.67-.22,8-11.79,7.96-12.55ZM215.68,360.1c-12.28-6.57-23.64-12.33-36.31-14.92-2.62-.54-5.32-.61-7.94.07-3.95,1.03-6.01,3.85-7.03,7.67-.95,3.51,1.46,5.24,3.6,7.03,4.33,3.64,9.43,5.52,15.01,6.17,11.07,1.27,21.44-1.36,32.68-6.02ZM151.6,259.15c7.4-.76,12.5-3.47,17.34-6.73,8.41-5.66,14.97-13.15,20.79-21.35q4.74-6.66-2.57-9.72c-1.07-.45-2.23-.77-3.21-1.38-2.59-1.61-4.07-.75-5.54,1.74-7.63,12.86-15.31,25.7-26.82,37.43ZM210,200.6c-.26-1.44-1.33-1.67-2.19-2.11-2.07-1.07-4.34-1.84-6.2-3.19-3.56-2.59-5.49-1.65-7.74,1.96-5.65,9.04-5.78,8.82,3.83,13.59,2.78,1.38,4.49,1.24,6.14-1.46,1.47-2.4,3.31-4.58,4.97-6.87.47-.66.86-1.38,1.19-1.91Z"/>
  <path class="cls-4" d="M812.99,406.99c-3.45,10.75-7.04,21.45-8.52,32.73-2.59,19.77-1.83,39.39,2.34,59.03,4.06-13.17,8.53-26.12,15.47-38.52,1.45,1.65.81,3.34.85,4.82.34,13.65-.73,27.34.63,40.97,1.76,17.62,7.4,33.2,23.82,42.66,2.97,1.71.55,3.16-.18,4.39-8.52,14.32-17.63,28.31-25.53,42.95-4.31,7.99-9.26,10.93-18.56,10.63-25.14-.81-50.32-.34-75.49-.2-3.24.02-5.07-.94-6.72-3.78-9.67-16.53-19.51-32.97-29.43-49.36-1.59-2.63-1.73-3.75,1.3-5.59,14.16-8.59,19.63-22.46,21.99-37.98.83-5.44.98-10.94.98-16.45-.03-52.66-.02-105.32-1.05-158.49-35.08,62.69-70.16,125.37-105.74,188.95-35.48-63.41-70.56-126.1-105.73-188.95-1.58,1.58-.93,3.15-.93,4.53-.04,52.5-.05,104.99-.02,157.49,0,10.92,1.53,21.59,6.17,31.63,3.8,8.21,9.15,15.12,17.16,19.59,2.26,1.26,2.7,2.19,1.29,4.52-10.25,16.97-20.38,34-30.48,51.05-1.14,1.92-2.42,2.81-4.75,2.8-28.66-.07-57.33-.08-85.99,0-2.4,0-3.56-1.08-4.67-2.93-10.19-17-20.45-33.97-30.65-50.96-.76-1.27-2.35-2.47.24-3.92,15.27-8.54,21.02-22.87,23.47-39.15.77-5.13.87-10.29.87-15.45.01-76.83.25-153.66-.27-230.48-.07-10.86,1.14-19.87,9.15-27.68,3.5-3.4,5.73-8.1,8.98-12.87,1.67,5.57,3.18,10.55,5.01,16.63,10.82-16.96,24.88-30.91,27.33-51.2,1.84-15.23-2.7-27.6-16.18-35.94-.39-.24-.82-.44-1.6-.85,2.13-1.4,3.81-.95,5.36-.95,21.5-.03,43,.09,64.49-.13,3.93-.04,5.84,1.28,7.66,4.64,33.48,61.8,67.08,123.53,100.69,185.26,1,1.85,1.61,4,3.7,5.6.96-1.67,1.88-3.18,2.72-4.73,33.74-62.03,67.51-124.06,101.14-186.15,1.83-3.38,3.78-4.64,7.68-4.61,30,.18,60,.16,89.99.02,3.41-.01,5.36.98,7.11,3.98,9.57,16.4,19.32,32.7,29.17,48.94,1.68,2.77,1.97,3.97-1.28,5.97-14.44,8.89-19.88,23.15-21.97,39.07-1.63,12.44-.82,24.97-.69,37.46.05,4.65-1.25,7.43-5.13,10.17-27.03,19.11-49.86,42.1-64.74,72.15-12.27,24.79-16.92,51.07-14.93,78.57,1.1,15.25,1.4,30.48-.47,46.63,4.73-3.5,7-7.65,9.06-11.96,4.12-8.61,4.55-18.01,5.87-27.22.78-5.43,1.67-10.84,3.34-16.29,6.19,24.41,9.81,52.31-14.24,99.51,1.54.62,2.44-.6,3.42-1.21,20.88-12.99,32.59-32.36,38.41-55.7,2.86-11.47,5.18-23.08,8.11-34.53,3.38-13.19,8.72-25.53,17.39-36.2.95-1.17,1.44-3.32,3.74-2.84l-.14-.07Z"/>
  <path class="cls-1" d="M946.81,391.2c-8.7-5.02-15.72-12.1-23.35-18.66,7.29,34.23,27.14,60.96,51.46,85.47-5.54,1.95-10.6-.32-16.41.26,17.95,30.2,36.92,58.79,64.4,81.08-.89.53-1.4.88-1.95,1.15-2.78,1.4-7.51,1.15-8.1,3.94-.5,2.35,2.55,5.45,4.05,8.21,5.75,10.63,10.31,21.66,11.64,33.8.28,2.59.53,5.18-.27,9.02-4.37-6.34-8.66-11.34-13.75-15.54-2.14-1.76-4.54-4.98-6.93-4.1-2.11.78-.97,4.77-1.22,7.32-.87,9-2.7,17.65-8.36,26.61-2.97-23.28-8.63-44.22-24.68-62.16-1.22,10.08-1.09,19.23-1.39,28.55-2.3-.69-2.72-2.46-3.56-3.76-7.16-11.08-13.1-22.8-18.28-34.93-4.79-11.23-10.21-22.11-19.13-30.78-2.49-2.42-4.99-4.88-9.79-6.82,10.25,21.48,16.99,42.66,14.13,67.15-14.53-19.87-28.97-37.97-50.27-50.91,1.02,8.32,1.88,15.33,2.81,23.02-13.21-4.04-24.53-9.57-32.59-20.34-4-5.35-4.87-11.79-4.95-18.06-.31-25.66-.18-51.32-.2-76.98,0-.28.25-.57.6-1.34,7.15,4.33,13.97,9.45,23.79,10.63-18.01-30.76-6.36-57.56,8.67-84.02,1.29,9.55,2.23,19.07,7.29,28.4,11.91-26.2,28.7-47.69,51.28-66.24-2.22,27.61-1.42,53.75,5.76,79.37-.24.21-.47.43-.7.66ZM921.32,499.66l.22.14.02-.25-.23.11Z"/>
  <path class="cls-1" d="M347.34,472.26c-4.25,6.02-6.63,12.68-8.31,19.62-3.56,14.71-3.26,29.76-3.58,44.73-.22,10.49.08,21.01-2.52,31.3-2.01,7.93-4.84,15.46-11.5,22.77,1.5-17.65-.7-33.5-6.24-48.98-2.43,21.62-4.87,43.15-14.27,64.18-4.73-26.87-7.1-52.7-2.49-80.05-4.3,4.35-5.8,8.7-7.4,12.91-5,13.15-7.08,27.03-10.06,40.69-1.49,6.83-2.97,13.69-4.99,20.37-3.67,12.14-11.39,20.93-23.07,26.06-1.6.7-3.23,1.88-5.65.68,10.5-15.76,14.94-33.35,16.47-53.51-13.37,15.07-27.78,25.67-47.3,28.27,36-57.13,72-114.26,108-171.39-.4-.47-.79-.94-1.19-1.41-16.47,12.08-33.56,23.11-52.04,32.45,4.52-10.91,8.51-21.85,10.88-34.61-6.89,4.44-13.12,7.8-19.73,10.37-1.86.73-3.74,1.41-5.64,2.04-1.69.56-2.51.13-2.17-1.89,3.39-19.96,3.34-40.13,3.93-60.5,5.17,10.05,11.39,19.24,20.46,28.07-1.54-19.21-1.67-37.05,7.23-53.55,2.22,12.29,3.54,24.66,9.39,37.46,5.75-21.43,20.47-37.89,22.91-59.29.3-2.62.67-5.22,1.22-9.5,5.77,13.58,13.75,23.87,23.57,33.11-3.23-26.33,6.63-51.08,7.51-78.01,4.14,5.09,5.15,10.36,7.74,15.57,3.89-5.23,5.8-11.03,8.88-16.49,1.22,1.89.71,3.56.71,5.11.03,72.48.03,144.96.02,217.43,0,7.89-.66,15.7-4.81,22.67-1.69,2.84-4.01,6.57-7.2,6.1-2.19-.32-1.55-4.9-1.91-7.58-1.88-13.69-3.57-27.42-5.35-41.12-.17-1.29-.11-2.67-1.47-4.07Z"/>
  <path class="cls-1" d="M331.61,296.41c-7.52-19.58-16.84-37.69-34.25-50.64,2.49,12.12,6.76,23.8,7.5,36.13.74,12.4-1.04,24.43-6.61,37.15-4-10.97-8.16-20.49-14.94-30.03-2.36,14.12-5.75,26.89-13.09,38.58-5.31-29.08-13.26-55.77-42.85-69.25,2.31-3.28,4.96-6.52,6.44-10.46.27-.73.33-1.54.7-3.3-13.99,6.15-27.54,11.31-42.68,13.79,2.05-4.28,5.22-6.75,7.45-9.91,3.64-5.18,7.56-10.16,11.05-15.44,1.74-2.64,3.47-3.3,6.59-2.66,13.05,2.7,26.27,3.73,39.83,3.45-.95-1.96-2.67-1.69-3.98-2.13-9.63-3.24-19.25-6.49-28.92-9.57-3.46-1.1-4.66-2.12-2.01-5.69,6.73-9.08,6.55-9.21,17.39-5.94,17.74,5.35,35.89,8.78,54.22,11.31,1.46.2,2.95.17,4.69.25-1.15-1.88-2.94-1.89-4.39-2.43-17.2-6.34-34.16-13.24-50.74-21.07-3.79-1.79-4.84-2.94-1.42-6.42,16.12-16.42,34.3-28.99,57.64-32.65,3.68-.58,5.92-.14,8.19,3.34,7.13,10.9,17.21,16.47,30.61,16.58,18.04.15,35.42-3.31,52.72-7.78,6.31-1.63,12.71-2.66,19.28-1.95,5.53.6,10.68,1.99,12.9,7.81,2.39,6.27-.09,11.6-3.94,17.32-2.54-4.13-4.74-7.71-7.59-12.35-3.6,13.37-8.27,25.17-16.53,36.56-1.67-9.38-2.67-17.73-6.03-26.71-3.13,8.59-5.82,16.19-11.49,22.93-4.94-10.32-11.66-18.59-21.62-26.14,2.75,10.64,4.64,20.01,5.07,29.59.43,9.43.09,18.81-2.16,29.26-10.59-22.61-26.67-37.79-49.43-46.45-.29,2.44,1.12,3.23,2.03,4.2,17.36,18.58,25.24,40.4,22.68,65.85-.83,8.28-1.54,16.58-2.3,24.87Z"/>
  <path class="cls-1" d="M830.55,352.51c-.44-7.66.63-13.7,1.81-20.9-17.59,11.12-31.48,24.77-45.11,40.03-.2-3.9,1.4-6.26,2.54-8.68,12.01-25.5,31.05-44.68,54.33-59.97,16.18-10.62,33.56-19.17,50.39-28.66,11.76-6.63,23.51-13.28,33.66-22.35,7.23-6.46,10.85-14.24,8.85-24.06-.88-4.3-3.27-7.6-7.08-9.83-1.66-.98-2.82-.95-2.86,1.43-.16,11.51-6.98,18.45-16.09,24.14-18.4,11.5-37.66,21.38-56.95,31.23-2.83,1.45-4.22,1.42-4.04-2.33.26-5.65-.26-11.39.45-16.97,2.33-18.52,14.39-28.91,30.69-35.44,5.86-2.35,5.91-2.26,2.57-7.86-8.02-13.45-15.98-26.95-24.14-40.32-2.05-3.36-2.39-5,2.32-5.62,13.05-1.71,26.11-3.35,39.25-4.19,2.15-.14,4.24-.19,6.18,1.28,15.71,11.85,31.06,24.1,44.6,38.49,10.44,11.1,12.48,23.9,8.16,38.01-4.36,14.25-13.68,24.97-25.06,34.12-5.08,4.08-10.64,7.46-16.2,10.82-8.42,5.08-16.93,10.01-25.32,15.13-23.17,14.16-46.63,27.98-62.96,52.49Z"/>
  <path class="cls-1" d="M552.28,185.96c38.56,5.62,75.98,4.52,114.44-1.29-19.35,35.58-38.15,70.15-57.57,105.87-19.15-35.22-37.77-69.45-56.87-104.58Z"/>
  <path class="cls-2" d="M250.36,327.09c.47,7.73-2.11,14.15-8.5,18.64-5.19,3.65-10.36,4.8-16.62,1.24-13.91-7.91-28.39-14.72-44.4-17.34-14.77-2.41-26.35,4.28-31.33,18.42-1.29,3.65-2.67,2.9-4.88,1.43-4.79-3.18-7.13-7.78-7.66-13.37-.41-4.34.04-8.62.99-12.89.95-4.24,1.15-8.35,7.75-5.51,4.13,1.78,9.48-1.64,11.51-5.89,2.16-4.52.85-8.39-2.54-11.76-2.79-2.77-6.27-4.34-9.85-5.74-3.94-1.55-4.96-4.39-3.16-9.66,1.26-3.69,3.44-7.14,7.92-5.63,18.26,6.15,36.02,4.05,53.79-2.11,12.9-4.47,24.68-.37,32.34,10.9,8.06,11.88,13.69,24.72,14.64,39.27ZM210.46,285.47c-1.58,10.63-1.98,11.05-12.6,13.19-1.14.23-2.32.33-3.4.71-4.34,1.52-7.08,4.6-7.07,9.22.02,4.46,2.68,7.5,6.99,8.59,8.43,2.12,16.46,1.03,23.81-3.79,2.31-1.51,3.6-3.75,4.22-6.5,1.96-8.62-3.32-18.17-11.95-21.43Z"/>
  <path class="cls-1" d="M176.96,129.47c-5.62-3.94-11.67-5.37-18.36-8.07,26.21-10.33,52.32-9.99,79.34-6.6-4.35-6-9.75-9.84-15.18-13.76,9.36-4.04,48.19,2.9,59.84,10.74-5.4,1.22-10.59,2.23-15.68,3.58-29.2,7.73-52.85,24.02-71.79,47.28-2.95,3.63-4.74,3.82-8.04.66-7.12-6.84-13.81-13.94-18.57-22.72-2.06-3.81-2.1-6.4,2.42-8.07,1.85-.68,3.55-1.78,6.02-3.04Z"/>
  <path class="cls-1" d="M668.42,510.08c-13.38,19.06-29.32,35.41-48.3,49.15,22.57-40.35,45.15-80.71,67.72-121.06.36.09.71.17,1.07.26,0,4.57,0,9.14,0,13.71,0,15.5.15,31-.05,46.49-.17,12.79-3.62,24.09-15.92,30.69-1.17.63-2.37,1.24-3.61,1.71-.91.35-2.16.93-2.81.58-1.24-.67-.52-2.09-.28-3.15,1.36-6,2.69-12,2.18-18.37Z"/>
  <path class="cls-1" d="M588.07,541.94c-1.27.64-2.25-.18-3.23-.71-16.26-8.74-31.59-18.59-41.51-34.88-.14-.23-.5-.33-1.27-.81-1.24,7.24.09,14.18.76,22.05-5.64-3.86-9.14-8.23-10.99-13.92-1.76-5.43-2.47-11.06-2.5-16.73-.11-18.8-.05-37.61-.03-56.41,0-.74-.37-1.65.53-2.24,1.42.26,1.57,1.6,2.09,2.53,18.23,32.51,36.42,65.03,54.59,97.57.63,1.13.98,2.42,1.46,3.63l.11-.08Z"/>
  <path class="cls-2" d="M439.63,82.06c.8,1.52.19,2.69-.34,3.94-17.34,40.34-47.7,63.32-91.39,68.48-3.29.39-6.73-.12-9.95.55-8.31,1.73-17.32-8.98-17.27-18.2.01-2.27.64-2.72,2.92-2.35,37.13,6.12,67.98-6.76,94.7-31.7,6.08-5.67,11.74-11.79,17.61-17.68,1.12-1.12,1.94-2.7,3.71-3.03Z"/>
  <path class="cls-1" d="M298.11,127.96c3.7-.82,4.69.85,3.24,4.57-1.14,2.93.95,7.09-1.68,8.91-2.36,1.64-6.07,1.3-9.17,1.91-26.66,5.21-47.68,19.87-65.53,39.59-2.87,3.17-4.79,3.8-8.54,1.38-9.26-5.98-9.36-5.75-2.08-13.97,22.2-25.09,49.74-39.67,83.76-42.39Z"/>
  <path class="cls-1" d="M117.06,255.08c5.5-21.92,3.14-45.1,10.71-66.68.7-2.01.97-4.23,2.9-6.19,8.92,10.56,19.6,18.94,31.28,26.1,1.34.82,1.91,1.69.99,3.22-5.05,8.38-10.08,16.77-16.7,25.21-2.46-7.64-3.17-15.13-7.82-21.84-3.63,15.74-9.02,29.83-21.43,40.07l.07.11Z"/>
  <path class="cls-1" d="M650.35,609.69c12.13-12.52,15.47-27.28,16.91-42.71,1.79-.34,1.97,1.15,2.5,2.03,8.13,13.55,16.13,27.18,24.39,40.65,1.7,2.76,1.14,4.36-.95,6.36-4.26,4.06-8.96,7.42-14.32,9.85-1.17.53-2.46,1.67-3.71.93-1.51-.88-.29-2.42-.19-3.62.43-5.17.38-10.27-.6-15.4-.6-3.13-1.67-3.81-4.64-2.31-5.67,2.85-11.69,4.51-19.39,4.23Z"/>
  <path class="cls-2" d="M60.6,99.43c1.85,2.16,3.45,3.91,4.91,5.77,14.86,19.06,33.24,33.01,56.89,39.32,2.41.64,3.61,1.13,1.7,3.8-2.61,3.65-4.94,7.51-7.18,11.4-1.05,1.82-1.94,2.19-3.89,1.22-25.59-12.74-43.8-32.01-52.89-59.41-.13-.39.19-.93.47-2.1Z"/>
  <path class="cls-1" d="M180.07,182.6c.05.76-7.28,12.33-7.96,12.55-1.13.37-1.88-.4-2.67-.96-10.81-7.66-20.47-16.44-27.6-27.79-1.65-2.63-1.75-4.65.22-7.13,2.9-3.64,5.19-9.69,8.95-10.18,4.1-.54,4.77,6.34,7.22,9.78,5.55,7.79,11.91,14.73,19.24,20.83,1,.83,2.28,1.44,2.59,2.9Z"/>
  <path class="cls-2" d="M215.68,360.1c-11.24,4.65-21.61,7.29-32.68,6.02-5.58-.64-10.68-2.53-15.01-6.17-2.14-1.79-4.54-3.51-3.6-7.03,1.03-3.83,3.08-6.64,7.03-7.67,2.61-.68,5.32-.61,7.94-.07,12.68,2.59,24.04,8.35,36.31,14.92Z"/>
  <path class="cls-1" d="M151.6,259.15c11.51-11.73,19.19-24.57,26.82-37.43,1.48-2.49,2.95-3.35,5.54-1.74.98.61,2.13.93,3.21,1.38q7.29,3.05,2.57,9.72c-5.82,8.19-12.38,15.69-20.79,21.35-4.84,3.25-9.94,5.97-17.34,6.73Z"/>
  <path class="cls-1" d="M210,200.6c-.33.53-.72,1.25-1.19,1.91-1.65,2.29-3.5,4.47-4.97,6.87-1.66,2.7-3.37,2.84-6.14,1.46-9.61-4.77-9.48-4.54-3.83-13.59,2.25-3.6,4.18-4.55,7.74-1.96,1.86,1.35,4.13,2.12,6.2,3.19.86.44,1.93.67,2.19,2.11Z"/>
  <path class="cls-1" d="M587.97,542.02l.36.27c-.09-.12-.17-.23-.26-.35,0,0-.1.08-.1.08Z"/>
  <path class="cls-1" d="M947.51,390.54c-.01.39-.02.77-.03,1.16-.22-.17-.44-.33-.66-.5.22-.23.45-.45.7-.66Z"/>
  <path class="cls-4" d="M813.13,407.06l-.27-.65c.22,0,.44,0,.66,0-.18.19-.36.39-.54.58,0,0,.14.07.14.07Z"/>
  <path class="cls-1" d="M116.99,254.97c-.07.13-.12.27-.22.37-.04.04-.18-.03-.27-.05.19-.07.38-.14.57-.21,0,0-.07-.1-.07-.1Z"/>
  <polygon class="cls-3" points="921.32 499.66 921.55 499.55 921.53 499.8 921.32 499.66"/>
  <path class="cls-3" d="M210.46,285.47c8.64,3.26,13.91,12.81,11.95,21.43-.62,2.75-1.91,4.99-4.22,6.5-7.35,4.82-15.38,5.91-23.81,3.79-4.32-1.09-6.98-4.14-6.99-8.59-.02-4.62,2.72-7.69,7.07-9.22,1.08-.38,2.27-.49,3.4-.71,10.62-2.14,11.02-2.56,12.6-13.19Z"/>
</svg>